<svg xmlns="http://www.w3.org/2000/svg" viewBox="0 0 170.15 40.13"><title>CMSgovlogo</title><g id="Layer_2" data-name="Layer 2"><g id="Layer_1-2" data-name="Layer 1"><path d="M93.31 26.88a2.52 2.52 0 012.52 2.54 2.46 2.46 0 01-.74 1.79 2.5 2.5 0 01-3.57 0 2.56 2.56 0 010-3.6 2.43 2.43 0 011.79-.73zm25.61-17.8h2.87v17.78a21 21 0 01-.82 6.87 8.93 8.93 0 01-3.92 4.74 12.87 12.87 0 01-6.71 1.66 15.35 15.35 0 01-5.16-.81 10.32 10.32 0 01-3.72-2.18 13 13 0 01-2.65-4h3.12a8.24 8.24 0 003.29 3.28 10.56 10.56 0 005 1.07 10.32 10.32 0 005-1.09 6.71 6.71 0 002.88-2.75 12.26 12.26 0 00.86-5.34v-1.16a10.87 10.87 0 01-4 3.15 11.76 11.76 0 01-10.76-.43 10.85 10.85 0 01-4.2-4.12 11.24 11.24 0 01-1.48-5.68 11.61 11.61 0 0111.55-11.56 10.68 10.68 0 014.67 1 12.88 12.88 0 014.18 3.49zm-8.47 2.19a9.08 9.08 0 00-4.53 1.18 8.54 8.54 0 00-3.28 3.26 8.92 8.92 0 00-1.19 4.5 8.12 8.12 0 002.46 6.07 9.69 9.69 0 0012.75 0 8.4 8.4 0 002.41-6.25 9.06 9.06 0 00-1.11-4.5 8.07 8.07 0 00-3.14-3.13 8.73 8.73 0 00-4.37-1.12zm25.95-2.76a11.05 11.05 0 018.6 3.73 11.61 11.61 0 013 8.06 11.61 11.61 0 01-3.26 8.17 11.79 11.79 0 01-16.76 0 11.61 11.61 0 01-3.26-8.17 11.58 11.58 0 013.08-8 11 11 0 018.6-3.79zm0 2.81a8.28 8.28 0 00-6.16 2.68 8.84 8.84 0 00-2.57 6.4 9.07 9.07 0 001.17 4.51A8.3 8.3 0 00132 28.1a9 9 0 008.77 0 8.31 8.31 0 003.17-3.23 9.07 9.07 0 001.17-4.51 8.82 8.82 0 00-2.58-6.4 8.29 8.29 0 00-6.14-2.64zm12.73-2.24h3.06l7.49 16.26 7.4-16.26h3.08l-10.22 22.31h-.53z" fill="#4b4b4b"/><path d="M29.72 6.56l-4 3.83a12.43 12.43 0 00-9.22-4.33A10.1 10.1 0 006.24 16.3a10.77 10.77 0 001.31 5.36 9.4 9.4 0 003.71 3.67 10.77 10.77 0 005.33 1.33 11 11 0 004.57-.93 16.37 16.37 0 004.55-3.4l3.89 4.07a21.37 21.37 0 01-6.32 4.52 17.25 17.25 0 01-6.79 1.26A15.63 15.63 0 015 27.72 15.44 15.44 0 01.5 16.29a15.65 15.65 0 012-8 15.17 15.17 0 015.89-5.66A16.48 16.48 0 0116.58.5a17.39 17.39 0 0113.14 6.06zm7.95-5.3h5.59l7 21 7.06-21h5.59L68 31.43h-5.58l-3.24-19.06-6.41 19.06h-5.06l-6.35-19.06L38 31.43h-5.6zm50.71 4.1l-4.26 3.75Q81.88 6 79.56 6a2.77 2.77 0 00-1.85.6A1.76 1.76 0 0077 8a2.33 2.33 0 00.51 1.44 39.06 39.06 0 004.21 3.88Q85 16 85.7 16.74a12 12 0 012.48 3.37 8.42 8.42 0 01.73 3.52 8.06 8.06 0 01-2.57 6.13 9.36 9.36 0 01-6.69 2.42A10 10 0 0174 30.61a12.47 12.47 0 01-4.1-5l4.83-2.91q2.18 4 5 4a3.69 3.69 0 002.49-.86 2.56 2.56 0 001-2 3.43 3.43 0 00-.76-2.05 21.94 21.94 0 00-3.35-3.14q-4.93-4-6.37-6.2a7.88 7.88 0 01-1.44-4.36 7.13 7.13 0 012.39-5.38A8.3 8.3 0 0179.65.5a9.31 9.31 0 014.3 1 15.67 15.67 0 014.43 3.86z" fill="#024f88" stroke="#024f88" stroke-miterlimit="10"/></g></g></svg>